<?xml version="1.0" encoding="UTF-8"?>
<svg version="1.1" xmlns="http://www.w3.org/2000/svg" width="512" height="512">
<path d="M0 0 C168.96 0 337.92 0 512 0 C512 168.96 512 337.92 512 512 C343.04 512 174.08 512 0 512 C0 343.04 0 174.08 0 0 Z " fill="#5555FE" transform="translate(0,0)"/>
<path d="M0 0 C11.72323261 -0.27000838 23.03807925 0.09952688 34.62158203 2.05761719 C35.3236377 2.16525391 36.02569336 2.27289063 36.74902344 2.38378906 C56.42860242 5.46975626 75.97238155 13.11790473 92.62158203 24.05761719 C93.19376465 24.43354004 93.76594727 24.80946289 94.35546875 25.19677734 C102.17210204 30.39580678 109.20240896 36.14422921 116.00048828 42.61230469 C118.56465737 45.06874025 118.56465737 45.06874025 121.25830078 47.15527344 C124.86403894 50.05774366 127.65369932 53.52243295 130.62158203 57.05761719 C131.31380859 57.86199219 132.00603516 58.66636719 132.71923828 59.49511719 C148.02979148 77.64095802 158.88136952 97.97913983 164.62158203 121.05761719 C164.91548828 122.12625 165.20939453 123.19488281 165.51220703 124.29589844 C177.31027373 169.8109891 165.85124928 215.63413612 142.6237793 255.28442383 C141.55367369 257.1777678 140.57910173 259.10526485 139.62158203 261.05761719 C147.50249966 267.55518225 155.41010379 273.98044929 163.62158203 280.05761719 C170.58859451 285.21610899 177.3211386 290.62447102 184.02392578 296.12011719 C188.1625022 299.5118583 192.37608522 302.80115402 196.62158203 306.05761719 C192.52090126 310.9435347 188.27337353 315.56565673 183.74658203 320.05761719 C183.12799316 320.67427246 182.5094043 321.29092773 181.87207031 321.92626953 C178.26526094 325.49898987 174.58608564 328.91703226 170.70751953 332.19433594 C165.79615523 336.58145349 161.24184814 341.36804709 156.62158203 346.05761719 C152.68943902 344.46822293 150.29137857 341.89419217 147.37158203 338.87011719 C144.34703404 335.74504231 141.32624719 332.771908 138.01611328 329.95214844 C134.46728625 326.88465366 131.1332486 323.63351822 127.83642578 320.29980469 C127.32699432 319.78485947 126.81756287 319.26991425 126.29269409 318.73936462 C124.17914362 316.59823929 122.06930628 314.45354108 119.96411133 312.30419922 C111.86899175 304.00764028 111.86899175 304.00764028 102.62158203 297.05761719 C102.09016602 297.37400146 101.55875 297.69038574 101.01123047 298.01635742 C80.96344645 309.88404455 61.20346427 319.11523984 38.62158203 325.05761719 C37.91066406 325.2511377 37.19974609 325.4446582 36.46728516 325.64404297 C16.02109055 330.99048796 -10.77231117 330.12703035 -31.06591797 324.87011719 C-31.92677002 324.6494458 -32.78762207 324.42877441 -33.67456055 324.20141602 C-51.79807695 319.40879374 -69.25377251 311.86513294 -84.83935547 301.42871094 C-86.09619141 300.75001953 -86.09619141 300.75001953 -87.37841797 300.05761719 C-91.40833262 301.40092207 -91.6497742 302.97406554 -93.53076172 306.72558594 C-93.9747934 307.59917 -93.9747934 307.59917 -94.42779541 308.49040222 C-95.06564678 309.74747346 -95.69912497 311.00677119 -96.32870483 312.26800537 C-97.99752278 315.61018101 -99.69800362 318.93622887 -101.39404297 322.26464844 C-101.73376633 322.93355103 -102.07348969 323.60245361 -102.42350769 324.29162598 C-105.36255475 330.06575885 -108.43331398 335.76117075 -111.56591797 341.43261719 C-115.60183784 348.7587111 -119.53030157 356.13113254 -123.37841797 363.55761719 C-127.62963572 371.75771646 -131.98973503 379.88757189 -136.43896484 387.98168945 C-142.15553293 398.4155355 -147.691806 408.94500268 -153.23632812 419.47094727 C-153.61282501 420.18471527 -153.9893219 420.89848328 -154.37722778 421.63388062 C-155.08165184 422.96951605 -155.78508203 424.30567639 -156.48727417 425.64248657 C-158.69805173 429.83329831 -161.00900081 433.95429534 -163.37841797 438.05761719 C-167.1619499 436.69325906 -170.19641705 434.96297537 -173.47607422 432.64355469 C-174.43610352 431.9691333 -175.39613281 431.29471191 -176.38525391 430.59985352 C-177.39362305 429.88466553 -178.40199219 429.16947754 -179.44091797 428.43261719 C-181.53018078 426.96434229 -183.62001762 425.49688382 -185.71044922 424.03027344 C-186.70254395 423.33305176 -187.69463867 422.63583008 -188.71679688 421.91748047 C-191.66192817 419.85950852 -194.63050321 417.85019498 -197.62841797 415.87011719 C-198.49466797 415.29519531 -199.36091797 414.72027344 -200.25341797 414.12792969 C-202.07107316 412.92373312 -203.88962322 411.72088107 -205.71044922 410.52148438 C-208.35668534 408.77286583 -210.99294978 407.00991373 -213.62841797 405.24511719 C-214.48854492 404.68091064 -215.34867188 404.1167041 -216.23486328 403.53540039 C-217.02989258 403.00003662 -217.82492188 402.46467285 -218.64404297 401.91308594 C-219.36366211 401.43508545 -220.08328125 400.95708496 -220.82470703 400.46459961 C-221.59379395 399.76814331 -221.59379395 399.76814331 -222.37841797 399.05761719 C-222.37841797 394.86071466 -220.03150722 392.98428173 -217.37841797 389.99511719 C-216.35912064 388.82026182 -215.34089899 387.64447237 -214.32373047 386.46777344 C-213.8200293 385.88785645 -213.31632812 385.30793945 -212.79736328 384.71044922 C-210.89443455 382.49385811 -209.06839747 380.22154882 -207.25341797 377.93261719 C-203.01863866 372.59386282 -198.70069868 367.3256277 -194.37841797 362.05761719 C-192.8781348 360.22451557 -191.37813389 358.39118291 -189.87841797 356.55761719 C-174.87841797 338.22428385 -159.87841797 319.89095052 -144.87841797 301.55761719 C-144.13076172 300.64367187 -143.38310547 299.72972656 -142.61279297 298.78808594 C-141.16544746 297.01938924 -139.71756496 295.25113176 -138.26904297 293.48339844 C-133.2317642 287.3338738 -128.21539683 281.16762631 -123.20483398 274.99633789 C-118.61000756 269.33860531 -113.99963216 263.69382674 -109.37841797 258.05761719 C-104.81678071 259.64503207 -101.08319125 262.06940129 -97.06591797 264.68261719 C-68.36083618 282.9133732 -35.39350941 291.38095433 -1.37841797 284.80761719 C0.96513409 284.26679748 3.30018678 283.68678039 5.62158203 283.05761719 C7.24580078 282.63996094 7.24580078 282.63996094 8.90283203 282.21386719 C27.48031708 276.98331314 45.20479198 267.58315014 60.62158203 256.05761719 C55.68193964 250.05586739 50.28352886 244.56632743 44.78173828 239.08740234 C43.25324145 237.5642533 41.73014965 236.03584716 40.20751953 234.50683594 C36.10672016 230.40357413 32.01597932 226.32058821 27.60205078 222.54980469 C21.65427463 217.46176367 16.27745499 211.73940568 10.80786133 206.14794922 C9.35819042 204.66817068 7.90243243 203.19460214 6.44580078 201.72167969 C5.59074951 200.84979004 4.73569824 199.97790039 3.85473633 199.07958984 C1.70721212 196.86264497 1.70721212 196.86264497 -1.37841797 196.05761719 C-1.75546875 196.90066406 -1.75546875 196.90066406 -2.14013672 197.76074219 C-3.56674896 200.40695038 -5.26043664 202.50106807 -7.19091797 204.80761719 C-7.98498047 205.76410156 -8.77904297 206.72058594 -9.59716797 207.70605469 C-10.03673828 208.23424805 -10.47630859 208.76244141 -10.92919922 209.30664062 C-13.70680609 212.66260365 -16.44614942 216.04979164 -19.19091797 219.43261719 C-19.74175049 220.1103418 -20.29258301 220.78806641 -20.86010742 221.48632812 C-23.71387282 224.99878872 -26.55708373 228.51899459 -29.37841797 232.05761719 C-34.25654166 230.45048341 -38.0142541 227.66149803 -42.12841797 224.68261719 C-43.65700419 223.59008586 -45.1856517 222.49764028 -46.71435547 221.40527344 C-47.49133789 220.84727051 -48.26832031 220.28926758 -49.06884766 219.71435547 C-52.61940701 217.16741089 -56.18479626 214.64166835 -59.75341797 212.12011719 C-60.77761841 211.39574463 -60.77761841 211.39574463 -61.82250977 210.65673828 C-70.27533148 204.69499614 -78.82609175 198.87529496 -87.37841797 193.05761719 C-85.4932104 188.97894291 -82.76078068 186.03476472 -79.69091797 182.80761719 C-78.59509737 181.63906657 -77.50004085 180.46979893 -76.40576172 179.29980469 C-75.61661377 178.45820801 -75.61661377 178.45820801 -74.81152344 177.59960938 C-72.53072026 175.14551178 -70.34330692 172.61458636 -68.15185547 170.08105469 C-65.92703705 167.54260547 -63.65338478 165.05119942 -61.37841797 162.55761719 C-58.53317569 159.43854708 -55.70642217 156.31006328 -52.94091797 153.12011719 C-49.97958287 149.71073138 -46.9368931 146.37967409 -43.87841797 143.05761719 C-40.80028078 139.71384604 -37.73758429 136.3609385 -34.75341797 132.93261719 C-33.92197266 132.01609375 -33.92197266 132.01609375 -33.07373047 131.08105469 C-31.27194959 129.01400146 -31.27194959 129.01400146 -29.62060547 126.34667969 C-27.40314975 123.24224168 -25.50858192 121.25586514 -22.37841797 119.05761719 C-19.58138549 118.66843798 -17.34202226 118.56208089 -14.56201172 118.68261719 C-13.75463058 118.70014038 -12.94724945 118.71766357 -12.11540222 118.73571777 C-9.20123511 118.81205797 -6.29087212 118.93192634 -3.37841797 119.05761719 C-2.20510925 119.10474854 -1.03180054 119.15187988 0.17706299 119.20043945 C9.00998753 119.56265015 17.83842304 119.995208 26.66705322 120.44830322 C30.28128017 120.63274774 33.89577833 120.81171693 37.51025391 120.99121094 C44.5476306 121.34146218 51.58469936 121.69756528 58.62158203 122.05761719 C57.23492178 124.91442776 55.79659979 127.24005903 53.75048828 129.67480469 C53.18160889 130.35720215 52.61272949 131.03959961 52.02661133 131.74267578 C51.11455933 132.82669678 51.11455933 132.82669678 50.18408203 133.93261719 C45.18662896 139.93161665 40.26588225 145.97344031 35.48217773 152.14428711 C33.34137723 154.89846529 31.17264098 157.61198381 28.90673828 160.26464844 C28.07013672 161.24820313 27.23353516 162.23175781 26.37158203 163.24511719 C25.25009766 164.53482422 25.25009766 164.53482422 24.10595703 165.85058594 C23.61611328 166.57890625 23.12626953 167.30722656 22.62158203 168.05761719 C24.04251924 172.32042883 27.22899469 173.96668599 30.74658203 176.49511719 C32.21554689 177.572479 33.68295899 178.6519607 35.14892578 179.73339844 C35.8964209 180.28463379 36.64391602 180.83586914 37.4140625 181.40380859 C40.77401878 183.92098885 44.04456304 186.54350139 47.30908203 189.18261719 C52.84312151 193.64559857 58.43230062 198.01821054 64.07861328 202.33886719 C68.44340626 205.68135632 72.78212656 209.05733953 77.12158203 212.43261719 C77.88768799 213.02800293 78.65379395 213.62338867 79.44311523 214.23681641 C83.18991328 217.15195858 86.92449848 220.07941099 90.62158203 223.05761719 C97.82904462 209.20350323 103.4560373 195.40494665 106.62158203 180.05761719 C106.80253418 179.18419678 106.98348633 178.31077637 107.16992188 177.41088867 C108.68856838 169.32831447 108.93246135 161.45497973 108.87158203 153.24511719 C108.86814789 152.58364685 108.86471375 151.92217651 108.86117554 151.24066162 C108.64314521 115.43932443 95.74340003 86.09375336 71.12158203 60.18261719 C54.20286019 43.75920462 34.35502951 32.2465204 11.62158203 26.05761719 C10.52450928 25.744375 10.52450928 25.744375 9.40527344 25.42480469 C-10.79167879 19.84226639 -36.17691668 19.2555581 -56.37841797 25.05761719 C-58.16505859 25.55068359 -58.16505859 25.55068359 -59.98779297 26.05371094 C-71.38442685 29.52800122 -85.17777536 34.2705504 -94.37841797 42.05761719 C-95.03841797 41.72761719 -95.69841797 41.39761719 -96.37841797 41.05761719 C-82.82754988 29.0211043 -67.87592347 19.53816548 -51.37841797 12.05761719 C-49.58017578 11.24164063 -49.58017578 11.24164063 -47.74560547 10.40917969 C-32.35536012 3.86084635 -16.7018497 0.40460239 0 0 Z " fill="#ECD705" transform="translate(269.37841796875,36.9423828125)"/>
<path d="M0 0 C0.33 0 0.66 0 1 0 C1 13.53 1 27.06 1 41 C-12.53 41 -26.06 41 -40 41 C-36.76284016 39.38142008 -33.61375469 38.05715856 -30.25 36.75 C-24.78388069 34.47853851 -20.44415797 31.88380762 -16 28 C-15.40703125 27.52304687 -14.8140625 27.04609375 -14.203125 26.5546875 C-6.56114327 19.82568589 -2.52693015 9.66396702 0 0 Z " fill="#000000" transform="translate(511,471)"/>
<path d="M0 0 C1.61857992 3.23715984 2.94284144 6.38624531 4.25 9.75 C6.52146149 15.21611931 9.11619238 19.55584203 13 24 C13.71542969 24.88945312 13.71542969 24.88945312 14.4453125 25.796875 C21.17431411 33.43885673 31.33603298 37.47306985 41 40 C41 40.33 41 40.66 41 41 C27.47 41 13.94 41 0 41 C0 27.47 0 13.94 0 0 Z " fill="#000000" transform="translate(0,471)"/>
<path d="M0 0 C13.53 0 27.06 0 41 0 C41 13.53 41 27.06 41 41 C39.38142008 37.76284016 38.05715856 34.61375469 36.75 31.25 C34.47853851 25.78388069 31.88380762 21.44415797 28 17 C27.52304687 16.40703125 27.04609375 15.8140625 26.5546875 15.203125 C19.82568589 7.56114327 9.66396702 3.52693015 0 1 C0 0.67 0 0.34 0 0 Z " fill="#000000" transform="translate(471,0)"/>
<path d="M0 0 C13.53 0 27.06 0 41 0 C37.76284016 1.61857992 34.61375469 2.94284144 31.25 4.25 C25.78388069 6.52146149 21.44415797 9.11619238 17 13 C16.40703125 13.47695312 15.8140625 13.95390625 15.203125 14.4453125 C7.56114327 21.17431411 3.52693015 31.33603298 1 41 C0.67 41 0.34 41 0 41 C0 27.47 0 13.94 0 0 Z " fill="#000000" transform="translate(0,0)"/>
<path d="M0 0 C0.66 0.33 1.32 0.66 2 1 C2 1.66 2 2.32 2 3 C0.3203125 4.32421875 0.3203125 4.32421875 -1.875 5.6875 C-2.59429687 6.14511719 -3.31359375 6.60273437 -4.0546875 7.07421875 C-5.01761719 7.53248047 -5.01761719 7.53248047 -6 8 C-6.66 7.67 -7.32 7.34 -8 7 C-5.36 4.69 -2.72 2.38 0 0 Z " fill="#CBBB3A" transform="translate(181,71)"/>
</svg>
